<svg width="448" height="370" viewBox="0 0 448 370" fill="none" xmlns="http://www.w3.org/2000/svg">
<path fill-rule="evenodd" clip-rule="evenodd" d="M0 189.81L189.937 273.8V186.48L27.3983 113.96L16.2909 134.68L165.131 202.02L164.39 237.54L4.44297 167.98L0 189.81ZM360.251 41.44L337.296 27.38L336.185 122.84L407.643 92.13L394.314 74L359.511 91.02L360.251 41.44ZM335.815 286.01V348.54L360.621 347.8V298.96L403.57 278.98V253.82L335.815 286.01ZM87.0083 41.81L108.112 27.01L222.149 75.11L221.779 40.33L151.802 8.88L188.456 0L246.215 25.16L246.585 85.84L280.278 99.9L279.907 2.22L304.344 10.73V174.64L425.045 122.47L434.301 143.19L281.388 210.53L281.018 128.39L87.0083 41.81ZM42.9488 85.47L59.2397 65.86L246.585 149.48L247.696 271.58L280.648 284.9V246.79L443.927 175.75L448 199.06L303.974 262.7V370H280.278V313.39L222.889 287.49L221.779 163.54L42.9488 85.47Z" fill="#00F9B1"/>
</svg>
